<svg id="Layer_1" height="512" viewBox="0 0 512 512" width="512" xmlns="http://www.w3.org/2000/svg"><g><path d="m456.833 120.5h-47.74l-43.83-73.052c-2.711-4.518-7.594-7.282-12.862-7.282h-192.801c-5.269 0-10.151 2.765-12.862 7.282l-43.83 73.052h-47.74c-30.421 0-55.168 24.747-55.168 55.166v241c0 30.42 24.747 55.168 55.167 55.168h401.666c30.419 0 55.167-24.748 55.167-55.168v-241c0-30.419-24.748-55.166-55.167-55.166zm-94.471 184.624c-9.852 31.717-33.081 57.186-63.735 69.877-21.13 8.751-44.567 10.755-66.778 5.833-2.488-.553-4.959-1.189-7.413-1.916-22.678-6.708-42.77-20.59-57.009-39.273l-1.859 8.386c-1.791 8.088-9.802 13.194-17.889 11.402-8.088-1.794-13.193-9.803-11.399-17.891l9.23-41.668c.861-3.885 3.229-7.267 6.586-9.403 3.354-2.139 7.421-2.856 11.305-1.995l41.673 9.237c8.088 1.794 13.191 9.799 11.4 17.888-1.794 8.092-9.804 13.192-17.892 11.401l-3.323-.739c22.673 25.358 59.882 34.276 91.892 21.021 22.393-9.271 39.361-27.881 46.561-51.058 2.457-7.912 10.859-12.34 18.775-9.875 7.908 2.457 12.333 10.861 9.875 18.773zm13.359-102.492-9.232 41.667c-.859 3.885-3.227 7.268-6.584 9.405-3.354 2.139-7.422 2.855-11.305 1.996l-41.674-9.238c-8.088-1.791-13.191-9.802-11.398-17.889 1.791-8.088 9.803-13.191 17.891-11.397l3.322.735c-22.672-25.355-59.881-34.279-91.891-21.021-22.392 9.273-39.362 27.882-46.561 51.057-2.455 7.914-10.862 12.34-18.772 9.879-7.914-2.459-12.335-10.865-9.878-18.775 9.851-31.716 33.081-57.185 63.733-69.878 21.132-8.748 44.572-10.758 66.779-5.831 2.488.552 4.96 1.191 7.412 1.917 22.679 6.712 42.771 20.592 57.012 39.271l1.859-8.388c1.791-8.086 9.801-13.191 17.889-11.4 8.087 1.792 13.191 9.803 11.398 17.89z"/></g></svg>