<svg width="16" height="16" viewBox="0 0 16 16" fill="none" xmlns="http://www.w3.org/2000/svg">
<path d="M8.84375 1.53125V7.15625H14.4688C14.9258 7.15625 15.3125 7.54297 15.3125 8C15.3125 8.49219 14.9258 8.84375 14.4688 8.84375H8.84375V14.4688C8.84375 14.9609 8.45703 15.3125 8 15.3125C7.50781 15.3125 7.15625 14.9609 7.15625 14.4688V8.84375H1.53125C1.03906 8.84375 0.6875 8.49219 0.6875 8C0.6875 7.54297 1.03906 7.15625 1.53125 7.15625H7.15625V1.53125C7.15625 1.07422 7.50781 0.6875 8 0.6875C8.45703 0.6875 8.84375 1.07422 8.84375 1.53125Z" fill="black"/>
</svg>
