<svg fill="none" height="300" viewBox="0 0 24 24" width="300" xmlns="http://www.w3.org/2000/svg" version="1.1" xmlns:xlink="http://www.w3.org/1999/xlink" xmlns:svgjs="http://svgjs.dev/svgjs"><g transform="matrix(1,0,0,1,0,0)"><path clip-rule="evenodd" d="m2.75 6c0-1.79493 1.45507-3.25 3.25-3.25h8c.4142 0 .75-.33579.75-.75s-.3358-.75-.75-.75h-8c-2.62335 0-4.75 2.12665-4.75 4.75v12c0 2.6234 2.12665 4.75 4.75 4.75h12c2.6234 0 4.75-2.1266 4.75-4.75v-8c0-.41421-.3358-.75-.75-.75s-.75.33579-.75.75v3.5091c-.0451-.0361-.092-.0704-.1406-.1028l-2.3809-1.5873c-1.5865-1.0577-3.699-.8485-5.0473.4998l-3.3624 3.3624c-1.3483 1.3483-3.46078 1.5575-5.04727.4998l-2.52153-1.681zm16.25 2.75c.4142 0 .75-.33579.75-.75v-4.18934l.7197.71967c.2929.29289.7677.29289 1.0606 0s.2929-.76777 0-1.06066l-1.2929-1.29289c-.6834-.68342-1.7914-.68342-2.4748 0l-1.2929 1.29289c-.2929.29289-.2929.76777 0 1.06066s.7677.29289 1.0606 0l.7197-.71967v4.18934c0 .41421.3358.75.75.75zm-10.5 2.25c1.38071 0 2.5-1.11929 2.5-2.5s-1.11929-2.5-2.5-2.5-2.5 1.11929-2.5 2.5 1.11929 2.5 2.5 2.5z" fill="#ffffffff" fill-rule="evenodd" data-original-color="#000000ff" stroke="none"/></g></svg>