<svg fill="none" height="64" viewBox="0 0 64 64" width="64" xmlns="http://www.w3.org/2000/svg"><g fill="#000"><path d="m61.3379 13.4826c-.821.7387-2.0856.6721-2.8245-.1486l-5.5134-6.1239v16.7823c0 1.1042-.8954 1.9993-2 1.9993s-2-.8951-2-1.9993v-16.7823l-5.5134 6.1239c-.7389.8207-2.0035.8873-2.8245.1486-.8211-.7386-.8876-2.0028-.1487-2.8235l6.0268-6.6942c2.3835-2.64738 6.5361-2.64737 8.9196 0l6.0268 6.6942c.7389.8207.6724 2.0849-.1487 2.8235z"/><path d="m6.78175 16.3339c.55469-5.8895 5.63245-10.3353 11.66305-10.3353h17.5029c1.1046 0 2-.89512 2-1.99931s-.8954-1.99932-2-1.99932h-17.5029c-7.9805 0-14.88678 5.90399-15.64543 13.95913-1.06869 11.347-1.06495 20.6556.00602 32.0473.75772 8.0597 7.66491 13.973 15.65211 13.973h27.054c7.9497 0 14.8415-5.8569 15.634-13.8799.6757-6.8395.9517-12.929.8243-19.1497-.0226-1.104-.9361-1.9806-2.0405-1.958-1.1043.0226-1.9812.9358-1.9586 2.0398.1046 5.1104-.0704 10.1422-.5282 15.6334-4.3813-6.9855-14.6342-6.9941-19.1208-.3047l-5.1734-6.1119c-6.1276-7.2393-17.5316-6.419-22.5593 1.6226l-3.93421 6.2926c-.91291-10.4819-.87182-19.2249.12696-29.8297z"/></g></svg>