<svg width="12" height="12" viewBox="0 0 12 12" fill="none" xmlns="http://www.w3.org/2000/svg">
<path d="M11.3921 1.80322L7.17334 6.02197L11.3569 10.2056C11.7085 10.522 11.7085 11.0493 11.3569 11.3657C11.0405 11.7173 10.5132 11.7173 10.1968 11.3657L5.97803 7.18213L1.79443 11.3657C1.47803 11.7173 0.950684 11.7173 0.634277 11.3657C0.282715 11.0493 0.282715 10.522 0.634277 10.1704L4.81787 5.98682L0.634277 1.80322C0.282715 1.48682 0.282715 0.959473 0.634277 0.60791C0.950684 0.291504 1.47803 0.291504 1.82959 0.60791L6.01318 4.82666L10.1968 0.643066C10.5132 0.291504 11.0405 0.291504 11.3921 0.643066C11.7085 0.959473 11.7085 1.48682 11.3921 1.80322Z" fill="black"/>
</svg>
